Coordinates
version=1
nRows=4
nColumns=107
inDegrees=yes

Units are S.I. units (second, meters, Newtons, ...)
If the header above contains a line with 'inDegrees', this indicates whether rotational values are in degrees (yes) or radians (no).

endheader
time	sternoclavicular_r2	sternoclavicular_r3	unrotscap_r3	unrotscap_r2	acromioclavicular_r2	acromioclavicular_r3	acromioclavicular_r1	unrothum_r1	unrothum_r3	unrothum_r2	elv_angle	shoulder_elv	shoulder1_r2	shoulder_rot	elbow_flexion	pro_sup	deviation	flexion	proximal_distal_r1	proximal_distal_r3	cmc_flexion	cmc_abduction	mp_flexion	ip_flexion	mcp2_flexion	mcp2_abduction	pm2_flexion	md2_flexion	mcp3_flexion	mcp3_abduction	pm3_flexion	md3_flexion	mcp4_flexion	mcp4_abduction	pm4_flexion	md4_flexion	mcp5_flexion	mcp5_abduction	pm5_flexion	md5_flexion	bicpt_tx	bicpt_ty	bicpt_tz	bicpt2_tx	bicpt2_ty	bicpt2_tz	ptpt_tx	ptpt_ty	ptpt_tz	FCUpt_tx	FCUpt_ty	FCUpt_tz	EDCpt_tx	EDCpt_ty	EDCpt_tz	APLpt_tx	APLpt_ty	APLpt_tz	FPLpt_tx	FPLpt_ty	FPLpt_tz	FPLpt2_tx	FPLpt2_ty	FPLpt2_tz	PEC1pt2_tx	PEC1pt2_ty	PEC1pt2_tz	PEC1pt3_tx	PEC1pt3_ty	PEC1pt3_tz	PEC2pt2_tx	PEC2pt2_ty	PEC2pt2_tz	PEC2pt3_tx	PEC2pt3_ty	PEC2pt3_tz	PEC3pt2_tx	PEC3pt2_ty	PEC3pt2_tz	PEC3pt3_tx	PEC3pt3_ty	PEC3pt3_tz	DELT2pt2a_tx	DELT2pt2a_ty	DELT2pt2a_tz	DELT2pt2_tx	DELT2pt2_ty	DELT2pt2_tz	LAT1pt2_tx	LAT1pt2_ty	LAT1pt2_tz	LAT1pt3_tx	LAT1pt3_ty	LAT1pt3_tz	LAT2pt2_tx	LAT2pt2_ty	LAT2pt2_tz	LAT2pt3_tx	LAT2pt3_ty	LAT2pt3_tz	LAT3pt2_tx	LAT3pt2_ty	LAT3pt2_tz	LAT3pt3_tx	LAT3pt3_ty	LAT3pt3_tz
      1.40000000	     -0.34899932	      0.14781964	     -0.14781964	      0.34899932	     -0.07066526	      0.57109180	      0.25670183	     -0.25670183	     -0.57109180	      0.07066526	     94.57411756	     82.62869109	     -1.65062974	     15.25296176	     29.25483971	    -88.41576193	      0.42032098	      0.90161523	      0.42582946	      0.45080761	     28.04745973	    -22.96012242	      1.18526797	      3.02565269	     -0.20068659	     -6.37581183	     20.96751211	    -16.96684013	      3.03090179	     -9.30511763	     18.46846215	     15.33865160	      0.73862082	    -10.64331421	     12.79279883	     20.08635248	     -2.57744771	    -13.74515979	     -9.03430864	      5.04067210	      0.00086766	     -0.03095305	     -0.00484009	     -0.00252868	     -0.01814722	     -0.00961790	      0.01408293	     -0.06067570	      0.00707236	     -0.00260367	     -0.18382517	      0.00673458	      0.01060987	     -0.00129873	     -0.00340042	     -0.00160322	     -0.00064129	     -0.00320644	     -0.00205212	     -0.00615637	     -0.00346296	     -0.00000556	     -0.00026415	     -0.00031698	      0.00270839	      0.00950231	      0.00661030	     -0.00885964	      0.02139167	     -0.02028995	      0.00270839	      0.00950231	      0.00661030	      0.00059676	      0.01983090	     -0.01042040	      0.00418489	      0.00528411	      0.01651696	      0.00000000	      0.00914247	      0.00000000	     -0.00775792	     -0.03585170	     -0.00754502	     -0.01487791	     -0.00094307	     -0.00353366	     -0.00096400	      0.01615851	     -0.00661030	      0.00266248	      0.02331967	     -0.01928004	     -0.00647259	      0.01400098	     -0.00592173	     -0.01349603	      0.02956273	     -0.03309741	     -0.02533949	      0.01565356	     -0.00794154	     -0.01680118	      0.03415322	     -0.04136029
      1.43333333	     -0.34601304	      0.14655479	     -0.14655479	      0.34601304	     -0.07006060	      0.56620514	      0.25450531	     -0.25450531	     -0.56620514	      0.07006060	     94.34913330	     81.92166245	     -1.64670302	     14.05926523	     29.92978092	    -89.16665499	      0.42675744	      0.89579148	      0.43010189	      0.44789574	     31.79846895	    -24.00918272	      3.12256933	      3.80502251	     -0.29625975	     -8.78210745	     20.84641675	    -17.00212168	      0.72260101	    -10.57845880	     16.98088939	     14.86161400	     -1.46261514	    -11.68912237	     11.29956199	     19.72528161	     -2.85792916	    -14.02471148	     -9.82246476	      4.86556097	      0.00088998	     -0.03103041	     -0.00485255	     -0.00275133	     -0.01833057	     -0.00956246	      0.01413841	     -0.06063983	      0.00713285	     -0.00264942	     -0.18381333	      0.00681274	      0.01069997	     -0.00129943	     -0.00344744	     -0.00158853	     -0.00063541	     -0.00317705	     -0.00203331	     -0.00609994	     -0.00343122	     -0.00001067	     -0.00023322	     -0.00027987	      0.00268521	      0.00942100	      0.00655374	     -0.00878383	      0.02120863	     -0.02011634	      0.00268521	      0.00942100	      0.00655374	      0.00059166	      0.01966122	     -0.01033124	      0.00415971	      0.00523890	      0.01646149	      0.00000000	      0.00898537	      0.00000000	     -0.00769154	     -0.03554493	     -0.00741482	     -0.01363575	     -0.00080059	     -0.00303364	     -0.00095575	      0.01602025	     -0.00655374	      0.00263970	      0.02312013	     -0.01911507	     -0.00641720	      0.01388118	     -0.00587106	     -0.01338055	      0.02930978	     -0.03281420	     -0.02512266	      0.01551962	     -0.00787359	     -0.01665742	      0.03386098	     -0.04100638
      1.46666667	     -0.33747951	      0.14294039	     -0.14294039	      0.33747951	     -0.06833274	      0.55224114	      0.24822859	     -0.24822859	     -0.55224114	      0.06833274	     94.38307787	     79.90127493	     -1.64729547	      8.81588079	     30.67368449	    -89.43166571	      0.42964486	      0.92290930	      0.43199651	      0.46145465	     31.95913074	    -24.27481483	      2.67145209	      5.35377553	     -3.32149926	    -11.91990582	     18.47480412	    -17.63689842	     -4.43241787	    -12.86459225	     13.16245767	     13.33442482	     -7.73606333	    -12.96230315	      5.73807108	     19.09944193	     -9.96080361	    -14.02847433	    -16.77228589	      4.94818393	      0.00091459	     -0.03111567	     -0.00486628	     -0.00283022	     -0.01853266	     -0.00954271	      0.01415799	     -0.06062716	      0.00715420	     -0.00266552	     -0.18380911	      0.00684042	      0.01073177	     -0.00129963	     -0.00346411	     -0.00165757	     -0.00066303	     -0.00331515	     -0.00212169	     -0.00636508	     -0.00358036	     -0.00001083	     -0.00023155	     -0.00027786	      0.00261899	      0.00918865	      0.00639211	     -0.00856720	      0.02068557	     -0.01962022	      0.00261899	      0.00918865	      0.00639211	      0.00057707	      0.01917632	     -0.01007645	      0.00408674	      0.00510969	      0.01629680	      0.00000000	      0.00854414	      0.00000000	     -0.00750185	     -0.03466830	     -0.00704899	     -0.00840523	     -0.00032287	     -0.00130479	     -0.00093218	      0.01562515	     -0.00639211	      0.00257460	      0.02254993	     -0.01864365	     -0.00625894	      0.01353884	     -0.00572626	     -0.01305055	      0.02858692	     -0.03200493	     -0.02450308	      0.01513687	     -0.00767941	     -0.01624661	      0.03302589	     -0.03999506
      1.50000000	     -0.33454293	      0.14169660	     -0.14169660	      0.33454293	     -0.06773814	      0.54743581	      0.24606863	     -0.24606863	     -0.54743581	      0.06773814	     94.24750074	     79.20601252	     -1.64492920	      7.47817680	     31.23573065	    -89.56562760	      0.43085767	      0.90836278	      0.43278836	      0.45418139	     33.38962933	    -24.46662109	      3.59692907	      5.94743450	     -4.37237485	    -12.33878333	     17.94368055	    -17.80138234	     -6.13439382	    -13.44207357	     12.56134834	     13.04156614	     -9.15051691	    -13.40192994	      4.67968719	     19.02920969	    -10.23401113	    -14.08026705	    -17.46443929	      4.91309077	      0.00093318	     -0.03118009	     -0.00487666	     -0.00287016	     -0.01868534	     -0.00953269	      0.01416789	     -0.06062076	      0.00716499	     -0.00267365	     -0.18380697	      0.00685444	      0.01074785	     -0.00129973	     -0.00347255	     -0.00162035	     -0.00064814	     -0.00324070	     -0.00207405	     -0.00622214	     -0.00349996	     -0.00001202	     -0.00021548	     -0.00025858	      0.00259620	      0.00910870	      0.00633649	     -0.00849265	      0.02050557	     -0.01944949	      0.00259620	      0.00910870	      0.00633649	      0.00057204	      0.01900946	     -0.00998877	      0.00406129	      0.00506523	      0.01623797	      0.00000000	      0.00839494	      0.00000000	     -0.00743657	     -0.03436664	     -0.00692525	     -0.00712970	     -0.00023733	     -0.00098152	     -0.00092407	      0.01548919	     -0.00633649	      0.00255220	      0.02235372	     -0.01848142	     -0.00620448	      0.01342103	     -0.00567644	     -0.01293699	      0.02833818	     -0.03172644	     -0.02428986	      0.01500515	     -0.00761258	     -0.01610524	      0.03273851	     -0.03964704
